HIERARCHY
ROOT Root
{
  OFFSET 5.5788 11.8871 -2.12402
  CHANNELS 6 Xposition Yposition Zposition Zrotation Xrotation Yrotation
  JOINT Spine
  {
    OFFSET 5.3114 0 0
    CHANNELS 3 Zrotation Xrotation Yrotation
    JOINT Spine1
    {
      OFFSET 2.79004 0 0
      CHANNELS 3 Zrotation Xrotation Yrotation
      JOINT Neck
      {
        OFFSET 1.43377 0 0
        CHANNELS 3 Zrotation Xrotation Yrotation
        JOINT Head
        {
          OFFSET 1.86043 0 0
          CHANNELS 3 Zrotation Xrotation Yrotation
          End Site
          {
            OFFSET 0 0 0
          }
        }
      }
      JOINT LeftArm
      {
        OFFSET 0.0387506 0 2.55754
        CHANNELS 3 Zrotation Xrotation Yrotation
        JOINT LeftForeArm
        {
          OFFSET 4.24845 0 0
          CHANNELS 3 Zrotation Xrotation Yrotation
          JOINT LeftHand
          {
            OFFSET 4.01008 0 0
            CHANNELS 3 Zrotation Xrotation Yrotation
            End Site
            {
              OFFSET 0 0 0
            }
          }
        }
      }
      JOINT RightArm
      {
        OFFSET 0.0387506 0 -2.55754
        CHANNELS 3 Zrotation Xrotation Yrotation
        JOINT RightForeArm
        {
          OFFSET -4.24845 0 0
          CHANNELS 3 Zrotation Xrotation Yrotation
          JOINT RightHand
          {
            OFFSET -4.01009 0 0
            CHANNELS 3 Zrotation Xrotation Yrotation
            End Site
            {
              OFFSET 0 0 0
            }
          }
        }
      }
    }
  }
  JOINT LeftUpLeg
  {
    OFFSET -1.23318 0 2.05692
    CHANNELS 3 Zrotation Xrotation Yrotation
    JOINT LeftLeg
    {
      OFFSET 5.46397 0 0
      CHANNELS 3 Zrotation Xrotation Yrotation
      JOINT LeftFoot
      {
        OFFSET 4.68898 0 0
        CHANNELS 3 Zrotation Xrotation Yrotation
        End Site
        {
          OFFSET 0 0 0
        }
      }
    }
  }
  JOINT RightUpLeg
  {
    OFFSET -1.24454 0 -2.05007
    CHANNELS 3 Zrotation Xrotation Yrotation
    JOINT RightLeg
    {
      OFFSET -5.46397 0 0
      CHANNELS 3 Zrotation Xrotation Yrotation
      JOINT RightFoot
      {
        OFFSET -4.68901 0 0
        CHANNELS 3 Zrotation Xrotation Yrotation
        End Site
        {
          OFFSET 0 0 0
        }
      }
    }
  }
}
MOTION
Frames:	23
Frame Time:	0.00833333
15.5172 12.1526 -1.75294 99.8548 8.32234 -0.254911 -7.27334 -7.69901 1.26996 8.47757 -1.9992 2.90121 -17.4419 0.782341 -8.05875 34.9129 0.728272 4.66482 -45.9863 -52.9529 -178.26 29.4101 1.83356 16.9814 -2.12222 -22.9417 174.024 -174.661 -32.1027 -162.93 46.3532 6.86752 25.9531 -1.08097 -12.1595 174.336 -18.4603 -5.165 179.652 -26.6236 -0.851593 -1.13205 22.9716 -6.7178 179.7 160.839 -12.6201 -179.291 -27.3525 -0.928149 -1.1718 19.5577 3.82119 175.464 
15.5078 12.1534 -1.76253 99.7765 8.15201 -0.213568 -7.22053 -7.67515 1.03718 8.41319 -2.01544 2.6368 -17.5766 0.796873 -7.8789 34.8999 0.914943 4.99851 -43.1211 -52.0145 -178.042 28.8761 1.72171 16.683 -2.12546 -22.9734 174.023 -174.746 -32.8643 -163.926 45.8333 6.67105 25.6955 -1.03071 -11.6103 174.346 -18.2246 -5.09611 179.712 -26.5373 -0.854701 -1.12894 23.1015 -6.75022 179.73 160.884 -12.4482 -179.294 -27.3992 -0.918012 -1.17873 19.2627 3.92368 175.453 
15.4976 12.1541 -1.77207 99.7029 7.97085 -0.175578 -7.18289 -7.61492 0.810049 8.34756 -2.02139 2.36962 -17.6725 0.799409 -7.72218 34.8603 1.08265 5.36284 -40.1815 -51.1233 -177.7 28.3531 1.6154 16.3899 -2.13837 -23.0984 174.018 -174.852 -33.5191 -164.939 45.2866 6.46668 25.4238 -0.970228 -10.9469 174.359 -17.9847 -5.02029 179.778 -26.4517 -0.858077 -1.12544 23.2391 -6.77918 179.76 160.93 -12.2627 -179.298 -27.4405 -0.907975 -1.18484 18.9467 4.03428 175.441 
15.487 12.1547 -1.78153 99.6397 7.77372 -0.142 -7.16576 -7.50876 0.592009 8.29616 -2.0124 2.12315 -17.7513 0.791387 -7.59492 34.8226 1.22017 5.73123 -37.2483 -50.1514 -177.336 27.8276 1.51124 16.095 -2.13486 -23.0638 174.019 -174.973 -34.0544 -165.938 44.7379 6.26486 25.1493 -0.904096 -10.218 174.371 -17.7668 -4.94627 179.845 -26.3876 -0.861408 -1.12287 23.3905 -6.81149 179.794 160.98 -12.1056 -179.315 -27.4563 -0.900912 -1.18709 18.6471 4.1426 175.429 
15.4758 12.1552 -1.79101 99.5808 7.55794 -0.104523 -7.16792 -7.35639 0.368235 8.2627 -1.98814 1.90299 -17.814 0.772893 -7.4975 34.7964 1.32973 6.11118 -34.3022 -49.1839 -176.926 27.2903 1.40767 15.7929 -2.11039 -22.8247 174.028 -175.096 -34.4716 -166.92 44.1807 6.06373 24.8682 -0.827263 -9.36688 174.385 -17.5659 -4.854 179.912 -26.3413 -0.864163 -1.12143 23.5394 -6.84083 179.825 161.05 -11.9924 -179.341 -27.4436 -0.898666 -1.18317 18.3811 4.25047 175.415 
15.464 12.1556 -1.8005 99.5258 7.32659 -0.0654524 -7.18651 -7.16216 0.142261 8.23933 -1.95079 1.69685 -17.8504 0.743251 -7.42697 34.7665 1.41558 6.51197 -31.3228 -48.2482 -176.438 26.7502 1.30677 15.4887 -2.07819 -22.5085 174.04 -175.218 -34.7728 -167.893 43.6059 5.85916 24.5769 -0.739623 -8.39082 174.399 -17.3721 -4.74629 179.98 -26.3047 -0.866661 -1.12047 23.6885 -6.86626 179.855 161.132 -11.8992 -179.373 -27.4123 -0.899346 -1.17522 18.1263 4.36189 175.4 
15.4521 12.1558 -1.80977 99.4887 7.08362 -0.0417474 -7.22463 -6.92348 -0.0549901 8.22425 -1.89946 1.50139 -17.866 0.702764 -7.38472 34.7248 1.46968 6.90969 -28.3867 -47.131 -175.964 26.2219 1.21053 15.1905 -2.03879 -22.1206 174.054 -175.337 -34.9497 -168.846 43.0348 5.65842 24.2865 -0.65287 -7.41943 174.412 -17.2041 -4.66613 -179.945 -26.2922 -0.869851 -1.12003 23.8726 -6.90277 179.894 161.198 -11.8092 -179.42 -27.3618 -0.900222 -1.1668 17.8606 4.46977 175.387 
15.4405 12.156 -1.81857 99.4831 6.83282 -0.0503298 -7.28595 -6.63782 -0.192673 8.21571 -1.83327 1.31325 -17.8662 0.651741 -7.37211 34.6633 1.48401 7.28042 -25.5697 -45.621 -175.593 25.7195 1.121 14.9066 -1.99274 -21.6667 174.071 -175.451 -34.9903 -169.764 42.4887 5.46894 24.0079 -0.57845 -6.58236 174.421 -17.0805 -4.65653 -179.856 -26.3178 -0.874688 -1.12012 24.1269 -6.9653 179.953 161.223 -11.7058 -179.491 -27.2912 -0.898566 -1.16151 17.5621 4.56704 175.381 
15.4293 12.156 -1.82719 99.5166 6.5646 -0.100471 -7.38071 -6.30339 -0.260118 8.22794 -1.75169 1.13092 -17.8656 0.593524 -7.39162 34.5807 1.46034 7.61449 -22.8887 -43.6422 -175.331 25.2192 1.03509 14.6229 -1.92824 -21.0291 174.095 -175.568 -34.891 -170.643 41.9716 5.29256 23.7427 -0.519458 -5.91646 174.428 -17.0013 -4.74579 -179.75 -26.3848 -0.881967 -1.12052 24.4849 -7.06375 -179.959 161.188 -11.5973 -179.598 -27.203 -0.89302 -1.16158 17.2264 4.64948 175.382 
15.4181 12.1559 -1.83563 99.5798 6.28043 -0.181471 -7.50487 -5.92196 -0.274721 8.25718 -1.65531 0.956394 -17.857 0.526879 -7.44182 34.4823 1.40179 7.92573 -20.3029 -41.3155 -175.132 24.7227 0.952998 14.3403 -1.84952 -20.2443 174.123 -175.671 -34.6587 -171.483 41.4729 5.12559 23.4851 -0.469571 -5.35186 174.433 -16.9576 -4.90537 -179.629 -26.4859 -0.890999 -1.12129 24.9202 -7.18814 -179.851 161.11 -11.4884 -179.734 -27.0967 -0.88525 -1.16468 16.8649 4.72165 175.387 
15.4073 12.1556 -1.84328 99.6611 6.00078 -0.2803 -7.64123 -5.4964 -0.247804 8.27466 -1.54487 0.791615 -17.8134 0.445262 -7.51824 34.3698 1.30247 8.22547 -17.7942 -38.724 -174.991 24.2833 0.881708 14.0899 -1.78048 -19.5499 174.147 -175.732 -34.2981 -172.277 40.993 4.96724 23.2362 -0.426025 -4.85802 174.437 -16.9545 -5.09295 -179.503 -26.6192 -0.900509 -1.12292 25.3778 -7.3237 -179.734 161.018 -11.3565 -179.875 -26.9674 -0.877061 -1.16749 16.4782 4.78962 175.397 
15.3972 12.1549 -1.84953 99.7494 5.74624 -0.383971 -7.77246 -5.02952 -0.190657 8.25155 -1.42114 0.638519 -17.708 0.342131 -7.61643 34.2454 1.15647 8.52507 -15.3418 -35.9514 -174.906 23.9545 0.82829 13.9029 -1.74422 -19.1829 174.16 -175.719 -33.8148 -173.02 40.5321 4.81673 22.9968 -0.386086 -4.40444 174.44 -16.9977 -5.26622 -179.378 -26.7829 -0.909219 -1.12592 25.8023 -7.45562 -179.623 160.943 -11.1793 180 -26.81 -0.870257 -1.1667 16.0674 4.85948 175.411 
15.3883 12.1538 -1.85407 99.8475 5.52234 -0.502282 -7.89291 -4.52711 -0.0870083 8.16347 -1.28513 0.501737 -17.5237 0.221281 -7.74835 34.1074 0.968398 8.8227 -12.9321 -32.9387 -174.909 23.7529 0.795552 13.7884 -1.75035 -19.2459 174.158 -175.609 -33.1918 -173.698 40.0809 4.67158 22.7614 -0.35031 -3.99763 174.443 -17.1154 -5.41829 -179.245 -27.0047 -0.916728 -1.13128 26.184 -7.58056 -179.519 160.895 -10.9336 179.888 -26.5965 -0.865865 -1.15972 15.6156 4.92726 175.43 
15.3803 12.1523 -1.85728 99.9593 5.31815 -0.637733 -8.01436 -3.98596 0.062571 8.03138 -1.13618 0.378863 -17.2788 0.0844165 -7.91201 33.9566 0.739522 9.114 -10.5573 -29.668 -174.973 23.6497 0.77955 13.7296 -1.78513 -19.5992 174.146 -175.415 -32.4344 -174.314 39.6425 4.53312 22.5314 -0.319681 -3.64899 174.445 -17.2957 -5.57025 -179.103 -27.2762 -0.923736 -1.13844 26.5508 -7.70621 -179.417 160.858 -10.6371 179.781 -26.3384 -0.86274 -1.14888 15.128 4.9916 175.455 
15.3723 12.1507 -1.85956 100.076 5.12924 -0.76644 -8.14466 -3.39544 0.221626 7.89449 -0.972513 0.261278 -16.9987 -0.0781294 -8.08208 33.7988 0.459038 9.4066 -8.21976 -26.2839 -175.011 23.6301 0.777224 13.7182 -1.83643 -20.1172 174.129 -175.171 -31.5801 -174.887 39.2364 4.40628 22.3179 -0.292144 -3.33529 174.446 -17.4842 -5.72179 -178.976 -27.5414 -0.930623 -1.1456 26.9036 -7.83435 -179.314 160.817 -10.3287 179.693 -26.0904 -0.859433 -1.13826 14.6384 5.06243 175.48 
15.3633 12.1492 -1.86132 100.187 4.95125 -0.864542 -8.29038 -2.74497 0.353812 7.79211 -0.792347 0.140365 -16.7086 -0.276044 -8.23324 33.6406 0.116203 9.70821 -5.94337 -22.9323 -174.949 23.6791 0.785493 13.7459 -1.89196 -20.6744 174.11 -174.911 -30.6692 -175.439 38.8822 4.2961 22.1317 -0.265649 -3.0333 174.447 -17.6268 -5.87262 -178.889 -27.744 -0.937769 -1.15096 27.2433 -7.96676 -179.206 160.758 -10.047 179.637 -25.9069 -0.854495 -1.13193 14.1808 5.14972 175.501 
15.353 12.148 -1.86278 100.289 4.77829 -0.920307 -8.44815 -2.01556 0.440517 7.72398 -0.59104 0.00850428 -16.4044 -0.520055 -8.34486 33.485 -0.305594 10.0151 -3.72794 -19.6436 -174.787 23.8225 0.808111 13.8275 -1.95683 -21.3204 174.086 -174.639 -29.6962 -175.985 38.5834 4.20407 21.9744 -0.237789 -2.71564 174.448 -17.7005 -6.01828 -178.852 -27.8611 -0.945382 -1.15388 27.572 -8.10516 -179.093 160.669 -9.81537 179.618 -25.8165 -0.847248 -1.13209 13.7738 5.25947 175.512 
15.3419 12.1468 -1.86369 100.387 4.61424 -0.948296 -8.61545 -1.21825 0.504231 7.67299 -0.370935 -0.127937 -16.0761 -0.802273 -8.43516 33.3302 -0.795643 10.3256 -1.58344 -16.344 -174.563 24.0582 0.845158 13.9618 -2.03532 -22.0944 174.057 -174.337 -28.6457 -176.511 38.3307 4.1277 21.8405 -0.210269 -2.40175 174.449 -17.7374 -6.16039 -178.851 -27.9253 -0.953223 -1.15537 27.8885 -8.24817 -178.976 160.559 -9.60869 179.628 -25.7854 -0.838561 -1.13619 13.3962 5.38526 175.519 
15.3304 12.1456 -1.86372 100.491 4.46955 -0.964096 -8.79975 -0.387567 0.570299 7.65308 -0.14073 -0.256601 -15.7411 -1.10443 -8.53721 33.1749 -1.32366 10.6504 0.436026 -13.0244 -174.271 24.3296 0.888055 14.1164 -2.11332 -22.8553 174.028 -174.005 -27.5408 -176.99 38.1242 4.06604 21.7307 -0.187215 -2.13867 174.45 -17.7665 -6.30789 -178.873 -27.964 -0.961005 -1.15611 28.1897 -8.39295 -178.857 160.445 -9.39382 179.663 -25.7749 -0.829311 -1.14121 13.0219 5.51838 175.526 
15.3188 12.1443 -1.86257 100.607 4.35456 -0.983277 -9.00975 0.44198 0.664034 7.67792 0.0908767 -0.365129 -15.417 -1.40817 -8.68399 33.0177 -1.8594 10.9998 2.27464 -9.67552 -173.904 24.58 0.928263 14.2591 -2.17618 -23.4623 174.003 -173.649 -26.4042 -177.399 37.9642 4.01814 21.6458 -0.172745 -1.97346 174.45 -17.8165 -6.46965 -178.905 -28.0044 -0.968439 -1.15676 28.4721 -8.53664 -178.742 160.34 -9.13752 179.715 -25.7461 -0.820374 -1.14409 12.6246 5.65014 175.538 
15.3069 12.1429 -1.85994 100.743 4.27513 -1.00524 -9.25834 1.26915 0.787286 7.75612 0.323863 -0.447814 -15.1142 -1.70956 -8.88812 32.863 -2.39857 11.3761 3.91146 -6.31496 -173.462 24.7883 0.962186 14.3776 -2.2157 -23.841 173.987 -173.265 -25.2389 -177.726 37.8629 3.98764 21.5922 -0.171689 -1.96124 174.45 -17.8896 -6.65433 -178.953 -28.0386 -0.975484 -1.15694 28.7303 -8.69035 -178.623 160.247 -8.80115 179.798 -25.6958 -0.811545 -1.14402 12.1725 5.78922 175.559 
15.2946 12.1413 -1.85607 100.893 4.2247 -1.02328 -9.53886 2.10966 0.928328 7.8784 0.562101 -0.512059 -14.8226 -2.01786 -9.13081 32.7117 -2.95558 11.7743 5.35665 -2.94388 -172.944 24.9866 0.994822 14.4903 -2.24066 -24.0789 173.977 -172.858 -24.0347 -177.989 37.8163 3.97386 21.5675 -0.180603 -2.06272 174.449 -17.9726 -6.85508 -179.019 -28.0572 -0.982281 -1.15647 28.9675 -8.85163 -178.503 160.156 -8.41234 179.91 -25.6423 -0.802504 -1.14264 11.6878 5.93658 175.586 
15.2824 12.1396 -1.85143 101.048 4.19499 -1.04375 -9.83184 2.95441 1.09212 8.03145 0.802734 -0.565172 -14.5291 -2.33447 -9.39796 32.5566 -3.52826 12.194 6.59668 0.470978 -172.339 25.1989 1.03055 14.6109 -2.26156 -24.2774 173.968 -172.448 -22.7962 -178.209 37.8002 3.96929 21.5588 -0.191198 -2.18333 174.448 -18.071 -7.0576 -179.09 -28.0852 -0.98882 -1.15636 29.1938 -8.99734 -178.391 160.07 -8.03729 -179.976 -25.5792 -0.793951 -1.14054 11.2254 6.07201 175.613 
